<?xml version="1.0" standalone="no"?>
<!DOCTYPE svg PUBLIC "-//W3C//DTD SVG 20010904//EN"
 "http://www.w3.org/TR/2001/REC-SVG-20010904/DTD/svg10.dtd">
<svg version="1.0" xmlns="http://www.w3.org/2000/svg"
 width="180.000000pt" height="180.000000pt" viewBox="0 0 180.000000 180.000000"
 preserveAspectRatio="xMidYMid meet">
<metadata>
Created by potrace 1.10, written by Peter Selinger 2001-2011
</metadata>
<g transform="translate(0.000000,180.000000) scale(0.100000,-0.100000)"
fill="#000000" stroke="none">
<path d="M745 1761 c4 -8 -2 -10 -19 -7 -14 2 -38 1 -53 -4 -15 -5 -22 -9 -14
-9 11 -1 10 -5 -4 -21 -17 -19 -17 -20 11 -31 30 -13 35 -14 149 -22 49 -4 58
-3 30 2 l-40 8 53 2 c52 1 90 -11 104 -33 5 -7 8 -6 8 4 0 13 1 13 10 0 6 -9
10 -10 10 -3 0 6 -11 21 -25 31 -16 13 -22 23 -15 27 6 4 17 0 23 -8 14 -18
91 -52 81 -36 -4 7 1 7 15 -1 16 -8 20 -17 15 -32 -4 -14 -2 -18 5 -14 6 4 11
3 11 -2 0 -16 -49 -11 -62 6 -10 12 -10 14 -1 8 7 -4 20 -3 29 2 11 6 13 11 5
16 -6 4 -11 2 -11 -4 0 -8 -6 -7 -21 1 -14 7 -19 7 -15 0 4 -6 -4 -9 -24 -6
-17 2 -30 -1 -30 -7 0 -6 -8 -4 -18 5 -11 10 -33 16 -53 16 -27 -1 -29 -3 -9
-6 14 -3 37 -13 51 -24 14 -10 29 -15 33 -12 19 19 66 5 66 -20 0 -5 -9 -2
-20 8 -19 18 -20 17 -20 -3 0 -28 -4 -28 -48 8 -25 20 -45 28 -61 25 -36 -7
-40 -17 -6 -14 32 3 75 -15 75 -31 0 -17 -39 -11 -49 8 -6 9 -11 11 -11 5 0
-19 -12 -16 -44 12 -16 14 -34 25 -40 25 -6 0 -4 -5 4 -10 27 -17 -4 -33 -50
-25 -36 6 -46 18 -19 21 5 1 14 2 19 3 6 0 10 6 10 12 0 6 -5 7 -12 2 -16 -9
-55 -5 -90 10 -29 12 -37 27 -15 27 6 0 4 5 -6 11 -12 7 -22 8 -28 2 -12 -12
93 -111 127 -119 23 -6 23 -7 6 -30 -9 -13 -21 -24 -25 -24 -13 0 -37 27 -30
34 3 3 -8 9 -25 12 -18 4 -32 13 -32 20 0 12 -31 35 -52 40 -5 1 -9 2 -10 4
-2 1 -11 3 -20 5 -11 2 -15 -2 -11 -11 3 -8 11 -14 18 -14 7 0 15 -7 19 -15 3
-8 14 -15 24 -15 11 0 25 -7 32 -15 11 -13 10 -15 -6 -12 -11 2 -27 7 -37 12
-10 4 -23 2 -32 -5 -8 -6 -19 -9 -25 -5 -5 3 -10 1 -10 -6 0 -7 -3 -10 -6 -6
-4 3 -3 14 0 24 6 14 9 15 15 4 6 -9 11 -10 15 -2 4 6 3 11 -3 11 -6 0 -8 6
-5 13 3 8 -1 19 -9 26 -11 9 -17 8 -27 -4 -11 -13 -11 -16 0 -13 7 2 15 -3 17
-10 3 -7 -1 -11 -8 -10 -7 2 -13 -6 -14 -16 0 -24 -21 -32 -29 -11 -3 9 -2 13
4 10 6 -3 10 -1 10 4 0 6 -5 11 -11 11 -8 0 -7 6 2 17 10 11 10 14 2 9 -7 -4
-13 -2 -13 3 0 6 6 11 14 11 7 0 19 7 26 15 7 8 15 13 19 11 12 -8 34 11 27
23 -4 6 -12 9 -17 6 -5 -4 -9 0 -9 7 0 8 -5 6 -11 -5 -8 -14 -18 -16 -49 -11
-26 4 -45 2 -55 -6 -9 -7 -15 -8 -15 -2 0 6 18 24 39 41 32 26 45 30 72 25 19
-4 44 -13 57 -21 13 -8 30 -12 39 -9 13 5 13 8 -1 22 -9 8 -20 12 -26 9 -5 -3
-10 -1 -10 4 0 13 22 14 36 3 5 -4 8 -5 7 -3 -2 2 3 11 10 19 10 13 9 15 -5 9
-10 -3 -18 -2 -18 3 0 5 -16 0 -35 -11 -24 -15 -43 -19 -64 -14 -25 5 -36 0
-71 -31 -26 -23 -39 -43 -35 -52 5 -15 -33 -59 -47 -55 -4 2 -5 -4 -1 -13 7
-18 -16 -64 -32 -64 -6 0 -11 9 -11 19 0 11 3 18 6 16 8 -5 30 22 23 29 -11
11 -24 6 -17 -6 5 -8 2 -9 -9 -5 -14 5 -17 0 -17 -24 0 -17 -4 -28 -10 -24 -5
3 -6 13 -3 23 6 14 4 15 -8 5 -17 -14 -17 -76 0 -97 13 -16 2 -28 -33 -33 -16
-3 -17 -1 -6 12 7 8 17 12 23 8 6 -3 7 -1 3 5 -4 7 -14 12 -22 12 -8 0 -13 -4
-9 -9 3 -5 1 -12 -5 -16 -5 -3 -10 -13 -10 -21 0 -9 5 -12 12 -8 7 4 8 3 4 -5
-10 -16 23 -26 37 -12 9 9 8 11 -4 6 -9 -4 -16 -1 -16 8 0 11 18 14 46 8 2 -1
-2 -7 -8 -15 -17 -20 -23 -63 -11 -71 8 -5 7 -11 -1 -21 -6 -8 -8 -14 -3 -14
5 0 10 -25 12 -56 2 -35 9 -63 19 -73 13 -13 15 -13 11 -1 -6 19 93 63 104 46
5 -7 8 -7 8 2 0 10 5 10 20 2 15 -8 20 -8 21 2 1 7 5 2 9 -12 8 -24 8 -24 9
-2 1 12 6 22 12 22 5 0 7 -5 3 -12 -4 -7 -3 -8 5 -4 6 4 9 12 6 17 -4 5 1 9
10 9 8 0 18 7 21 15 7 18 30 20 37 3 4 -10 6 -10 6 0 1 7 14 12 32 12 25 0 30
-3 25 -17 -5 -13 -1 -12 11 4 14 17 28 22 68 22 27 -1 59 -6 70 -11 27 -15 65
-18 65 -6 0 6 -6 8 -13 5 -8 -3 -14 4 -15 16 -1 15 1 18 7 9 7 -11 10 -10 14
3 4 9 3 13 -3 10 -5 -3 -8 3 -7 14 0 11 6 17 14 14 7 -3 13 0 13 7 0 7 6 10
13 7 7 -3 13 3 14 13 2 19 -22 34 -38 24 -5 -3 -15 -2 -21 3 -7 4 -17 8 -23 9
-5 0 -16 2 -23 2 -7 1 -10 6 -7 12 3 6 -1 7 -10 4 -12 -5 -13 -9 -4 -20 7 -8
9 -29 6 -50 -4 -25 -2 -34 6 -31 7 2 11 18 9 36 -3 38 24 44 34 6 11 -44 -1
-55 -57 -55 l-51 0 4 38 3 38 -65 -9 c-36 -4 -116 -19 -178 -33 -62 -14 -117
-22 -124 -18 -6 4 -8 3 -5 -3 3 -5 -6 -10 -23 -10 -26 0 -28 3 -25 31 3 17 9
45 14 63 5 17 6 35 3 39 -4 5 1 2 10 -5 15 -11 19 -11 24 2 3 9 1 24 -5 36
-14 25 -14 31 0 31 5 0 7 -4 4 -10 -3 -5 -2 -10 3 -10 5 0 9 -6 9 -13 0 -7 11
-39 26 -70 15 -33 21 -57 15 -57 -6 0 -9 -2 -7 -5 3 -2 39 5 82 16 42 10 116
25 164 32 l88 12 5 60 c3 40 9 60 18 59 6 -1 32 -2 56 -2 39 -2 44 -5 49 -29
8 -42 25 -99 27 -93 7 21 8 50 2 50 -4 0 -8 9 -9 21 -2 17 1 18 13 9 8 -7 14
-22 14 -34 0 -17 2 -18 10 -6 8 12 10 11 10 -6 0 -12 7 -27 15 -34 12 -10 13
-16 3 -27 -7 -9 -7 -13 -1 -11 6 2 11 -1 11 -6 0 -5 7 -13 16 -18 20 -11 21
-32 1 -24 -13 4 -13 2 -5 -14 5 -10 15 -22 20 -25 6 -4 8 -10 5 -15 -3 -4 4
-10 15 -13 12 -3 20 -14 20 -27 0 -12 5 -18 10 -15 6 3 13 -1 16 -9 9 -23 21
-19 28 8 3 14 15 28 26 31 19 6 57 -12 58 -28 0 -5 4 -12 8 -15 4 -4 4 5 0 20
-5 23 -3 25 14 21 11 -3 20 0 20 6 0 5 -7 8 -16 4 -13 -5 -15 -2 -9 15 4 13 2
22 -4 22 -6 0 -11 -9 -11 -20 0 -12 -7 -20 -16 -20 -13 0 -14 3 -5 14 10 12 8
17 -8 25 -28 15 -31 14 -31 -14 0 -14 -4 -25 -9 -25 -5 0 -7 10 -4 23 4 21 4
21 -12 -3 l-16 -25 6 25 c4 14 3 20 -2 14 -4 -6 -18 -10 -30 -9 -12 1 -19 -3
-16 -8 3 -6 1 -7 -5 -3 -6 4 -9 13 -6 20 3 7 -2 16 -10 19 -9 4 -12 14 -9 25
3 12 -6 36 -21 59 -14 21 -28 53 -32 71 -8 40 -53 79 -100 88 l-35 6 28 30 28
29 17 -22 c14 -16 21 -19 31 -10 17 13 27 5 27 -23 0 -17 3 -15 20 11 22 37
54 48 109 39 33 -5 39 -3 52 20 7 15 24 30 37 35 25 10 21 31 -6 28 -24 -2
-62 12 -62 22 0 5 -9 9 -21 9 -14 0 -19 5 -16 14 4 9 -2 12 -16 11 -32 -4 -32
-4 -11 -20 19 -15 19 -15 -1 -8 -11 4 -31 17 -45 30 -21 20 -23 25 -10 33 9 6
10 10 3 10 -6 0 -14 -4 -18 -10 -3 -5 -12 -7 -20 -4 -8 4 -12 10 -9 15 3 5 -5
5 -19 0 -26 -10 -52 -9 -63 2 -3 3 -19 4 -34 1 -15 -4 -38 -1 -50 6 -16 8 -20
9 -15 1z m-45 -30 c0 -4 21 -4 46 2 35 8 47 8 54 -2 5 -8 16 -11 29 -6 16 5
27 1 37 -12 9 -10 13 -13 10 -7 -8 16 37 34 57 23 13 -8 14 -13 5 -28 -6 -11
-17 -17 -25 -14 -7 3 -10 10 -6 16 3 6 1 7 -5 3 -32 -19 -146 -24 -166 -6 -11
8 -17 8 -27 -3 -11 -12 -16 -12 -27 0 -7 7 -19 10 -25 6 -7 -3 -3 3 7 15 20
23 36 29 36 13z m-195 -101 c-3 -5 -15 -10 -26 -10 -22 0 -26 -8 -32 -62 -3
-23 -1 -35 5 -32 10 7 5 -47 -7 -65 -3 -6 -1 -11 4 -11 6 0 11 7 11 15 0 18
37 38 56 31 8 -3 12 -2 9 3 -10 18 34 22 63 7 16 -8 33 -12 37 -8 5 4 5 -1 2
-10 -4 -11 -1 -18 6 -18 7 0 3 -7 -7 -15 -11 -8 -14 -15 -7 -15 7 0 9 -5 5
-12 -4 -8 -3 -10 2 -5 5 5 8 10 7 13 -1 2 4 16 12 31 9 18 23 28 37 28 15 1
22 6 20 15 -3 11 -1 12 8 4 7 -7 9 -21 5 -34 -5 -16 -10 -19 -18 -11 -6 6 -16
11 -21 11 -6 0 0 -7 13 -16 16 -12 22 -23 18 -40 -4 -21 -2 -22 11 -12 13 11
14 10 2 -7 -14 -23 -65 -32 -76 -13 -5 7 -2 9 8 6 9 -4 15 0 15 8 0 8 -4 14
-7 14 -10 0 -28 -22 -29 -35 -1 -5 -7 -10 -14 -11 -6 0 -30 -6 -51 -12 -22 -6
-41 -10 -42 -9 -1 1 -14 31 -28 67 -15 36 -24 55 -21 43 3 -13 7 -33 10 -45
l6 -23 -12 23 c-13 24 -24 28 -35 10 -5 -7 -3 -8 6 -3 10 6 12 4 7 -9 -5 -11
-3 -15 5 -10 8 5 9 2 5 -10 -4 -10 -3 -15 3 -11 6 3 10 0 10 -7 0 -9 3 -9 10
2 5 8 10 12 10 8 0 -3 3 -13 6 -22 4 -11 0 -14 -15 -11 -12 2 -21 0 -21 -6 0
-5 -5 -9 -11 -9 -5 0 -7 6 -4 13 4 6 0 4 -8 -6 -11 -13 -16 -15 -20 -5 -2 7 3
22 12 32 9 11 10 16 3 12 -18 -11 -51 2 -33 13 10 7 10 11 -1 22 -7 8 -19 25
-26 37 -10 18 -10 22 0 22 10 0 10 3 -1 9 -18 11 -9 85 14 111 22 25 124 53
110 30z m355 -47 c0 -15 -65 -73 -82 -73 -27 0 -22 14 17 49 33 29 65 41 65
24z m-212 -64 c2 6 11 15 21 20 13 8 17 5 18 -11 1 -11 -1 -18 -4 -14 -3 3
-14 1 -24 -4 -12 -7 -27 -6 -46 2 -37 16 -36 15 -28 28 4 7 15 3 33 -11 16
-12 28 -16 30 -10z m-315 -54 c9 -19 13 -35 8 -35 -6 0 -13 9 -16 21 -5 15
-10 17 -20 9 -10 -8 -15 -8 -21 1 -5 8 -3 9 6 4 10 -6 12 -4 7 7 -6 16 0 28
13 28 3 0 14 -16 23 -35z m297 -146 c0 -6 8 -8 19 -4 11 3 22 1 25 -4 4 -6 12
-8 19 -5 7 2 13 -4 14 -14 1 -15 -7 -19 -45 -21 -72 -3 -179 -28 -271 -61 -46
-17 -85 -29 -86 -28 -7 7 -9 77 -3 83 9 9 128 13 122 4 -2 -4 3 -9 11 -13 8
-3 17 0 21 6 5 7 2 8 -5 3 -9 -5 -12 -2 -9 11 2 12 11 18 22 16 11 -2 23 2 27
10 7 11 9 11 9 -1 0 -10 3 -11 14 -2 7 6 30 12 50 13 20 1 36 5 36 10 0 4 7 8
15 8 8 0 15 -5 15 -11z m427 -109 c-3 -11 -1 -18 3 -15 5 3 11 1 14 -4 4 -5 2
-12 -3 -15 -13 -8 -34 21 -27 39 8 22 19 18 13 -5z"/>
<path d="M990 1732 c0 -18 15 -22 46 -12 16 4 22 9 14 9 -8 1 -25 4 -37 7 -13
4 -23 2 -23 -4z"/>
<path d="M1090 1711 c8 -5 38 -12 65 -15 49 -5 49 -5 10 4 -77 19 -91 21 -75
11z"/>
<path d="M1346 1664 c-53 -19 -71 -35 -54 -45 8 -5 2 -8 -16 -6 -26 2 -28 -1
-31 -33 -1 -19 -4 -42 -6 -50 -2 -8 1 -14 8 -15 6 0 15 -4 20 -9 5 -6 2 -6 -7
-1 -8 5 -12 4 -8 0 11 -12 60 -16 52 -4 -3 5 -1 8 4 7 6 -2 10 2 10 7 0 6 -5
9 -10 7 -6 -2 -8 3 -5 11 3 7 -1 14 -8 14 -7 0 -12 -8 -10 -19 4 -21 -2 -23
-19 -5 -9 9 -10 20 -3 37 5 15 11 20 14 13 3 -7 9 -13 14 -13 6 0 7 4 4 10 -3
5 0 7 8 4 8 -3 17 2 20 10 4 9 1 15 -5 13 -7 -1 -12 5 -13 13 -1 20 56 49 73
37 9 -7 12 -4 12 12 0 11 -1 21 -2 20 -2 0 -21 -7 -42 -15z"/>
<path d="M1425 1656 c17 -7 30 -17 30 -22 0 -4 8 -10 18 -11 9 -2 17 1 17 6 0
6 -9 8 -20 6 -11 -2 -18 0 -15 5 3 4 13 7 23 5 9 -2 21 -4 25 -4 5 -1 6 -5 3
-10 -3 -5 3 -11 13 -14 12 -3 18 -12 16 -23 -3 -19 -6 -20 -40 -9 -14 4 -12 2
5 -8 18 -11 30 -12 43 -5 14 7 22 6 31 -3 6 -7 6 -9 0 -6 -5 3 -23 -3 -40 -14
-20 -13 -24 -19 -12 -19 9 0 19 4 22 9 5 8 14 8 45 2 2 -1 -2 -8 -9 -16 -10
-12 -10 -15 1 -15 11 -1 10 -3 -2 -10 -10 -6 -15 -21 -13 -44 3 -35 -11 -48
-30 -29 -14 14 -101 11 -123 -3 -33 -21 -28 -37 6 -20 37 19 100 23 129 7 24
-13 20 -36 -4 -27 -17 7 -19 -10 -1 -18 6 -3 1 -3 -12 0 -14 4 -21 2 -17 -4 7
-12 -11 -19 -46 -17 -15 1 -25 -2 -22 -6 2 -4 -4 -13 -15 -18 -15 -8 -20 -7
-25 5 -4 9 -13 14 -21 10 -22 -8 -45 3 -39 19 4 9 0 12 -13 9 -10 -3 -27 2
-38 11 -11 8 -14 14 -6 13 7 -2 16 3 19 11 2 8 0 11 -6 7 -6 -3 -13 0 -15 6
-3 7 -6 4 -6 -7 -1 -17 -3 -17 -11 -5 -14 21 -12 30 5 30 8 0 15 4 15 9 0 7
18 8 53 2 5 0 5 -6 2 -11 -4 -6 -11 -7 -17 -4 -7 4 -8 2 -4 -4 4 -6 14 -8 23
-5 10 4 14 2 10 -4 -3 -5 0 -10 8 -10 19 0 19 11 0 27 -10 9 -15 28 -14 62 2
45 12 54 21 18 2 -12 8 -10 28 8 20 19 21 22 5 16 -16 -6 -14 0 9 24 17 18 38
32 48 32 10 0 18 5 18 11 0 6 -6 9 -12 6 -7 -2 -20 2 -30 10 -12 11 -18 11
-24 2 -4 -7 -3 -10 3 -6 6 4 13 0 17 -8 8 -21 -10 -19 -34 5 -11 11 -20 16
-20 10 0 -5 -5 -10 -11 -10 -5 0 -7 5 -4 10 3 6 1 10 -5 10 -6 0 -10 -6 -8
-12 1 -7 -6 -25 -16 -41 -17 -26 -18 -29 -2 -46 15 -17 15 -19 1 -25 -9 -3
-13 -10 -10 -16 3 -5 1 -10 -5 -10 -6 0 -9 -4 -5 -9 3 -5 1 -12 -5 -16 -6 -3
-13 1 -16 9 -3 9 -10 13 -16 10 -5 -3 -7 -12 -5 -18 3 -7 -1 -13 -9 -13 -7 0
-11 4 -8 8 5 9 -15 64 -22 57 -2 -3 0 -27 6 -53 12 -55 57 -118 77 -111 8 3
12 2 9 -3 -3 -5 7 -13 22 -19 55 -21 82 -23 107 -6 17 11 33 14 52 9 l28 -8
-34 -9 c-18 -5 -44 -16 -57 -25 -17 -11 -24 -12 -24 -3 0 8 -12 11 -34 8 -19
-2 -33 -1 -30 3 2 4 -6 10 -19 13 -81 22 -143 163 -108 249 13 34 14 48 2 28
-7 -12 -14 -10 -36 8 -34 26 -52 27 -59 3 -8 -23 -43 -62 -57 -62 -6 0 -8 4
-5 9 3 5 -1 11 -9 14 -9 4 -12 1 -8 -9 3 -8 -1 -14 -11 -14 -9 0 -16 -5 -16
-10 0 -7 6 -7 19 0 14 7 21 6 23 -2 3 -9 10 -8 22 5 21 21 42 17 40 -7 -1 -9
2 -16 7 -16 5 0 9 -7 9 -15 0 -8 -5 -15 -11 -15 -5 0 -8 4 -5 8 2 4 -4 8 -14
9 -16 1 -19 -4 -16 -28 2 -21 0 -29 -9 -25 -21 8 -34 -14 -25 -40 5 -13 7 -24
4 -24 -4 0 -1 -7 6 -15 8 -9 9 -15 2 -15 -15 0 -26 20 -28 48 0 12 -3 25 -6
27 -10 10 -38 -7 -38 -24 -1 -11 -5 -9 -16 9 -9 14 -13 17 -10 6 5 -14 2 -17
-11 -12 -16 5 -16 5 -2 -6 9 -7 14 -18 12 -25 -2 -6 1 -15 8 -19 9 -5 10 -2 6
10 -5 12 -3 16 5 14 7 -3 14 -10 14 -16 1 -7 2 -16 3 -22 0 -5 11 -15 24 -21
22 -11 22 -11 -2 15 -14 14 -21 26 -17 26 5 0 3 6 -3 13 -8 10 -7 19 4 33 16
21 17 19 19 -28 1 -22 6 -33 16 -33 8 0 15 -5 15 -12 0 -6 4 -15 8 -20 5 -4 8
-3 6 2 -1 6 1 18 6 29 5 11 3 21 -4 25 -9 6 -8 11 4 21 15 12 16 11 19 -11 0
-6 9 -17 20 -24 16 -12 16 -16 4 -27 -31 -29 -57 -38 -83 -28 -23 9 -25 7 -25
-15 0 -14 5 -25 11 -25 5 0 7 4 4 10 -4 6 2 7 17 1 27 -10 74 9 61 25 -4 5 4
-2 20 -15 23 -21 27 -22 27 -7 0 9 -4 15 -9 11 -18 -10 -21 13 -4 26 9 8 14 9
10 3 -4 -7 0 -15 9 -18 8 -3 12 -10 9 -16 -3 -6 1 -13 10 -16 12 -5 13 -9 4
-21 -10 -11 -9 -13 2 -11 11 2 13 -7 11 -37 -2 -30 0 -36 7 -25 7 9 11 10 11
3 0 -19 -21 -27 -31 -12 -6 10 -9 8 -9 -9 0 -19 3 -21 19 -13 17 9 19 6 23
-27 4 -28 0 -41 -16 -55 -12 -10 -15 -16 -8 -12 8 4 12 -3 12 -24 0 -28 3 -31
29 -31 33 0 65 -25 54 -43 -4 -6 -9 -2 -14 10 -6 16 -14 20 -39 17 -27 -3 -33
1 -44 26 -7 17 -16 27 -21 23 -4 -5 -5 1 -1 12 6 17 4 17 -18 -4 -22 -21 -26
-22 -26 -7 0 9 5 14 10 11 6 -4 18 11 28 33 11 24 22 37 31 34 8 -3 11 0 7 7
-4 6 -16 11 -27 11 -16 0 -19 -5 -14 -20 5 -15 3 -18 -9 -14 -8 3 -14 11 -13
16 1 6 -4 13 -12 16 -10 3 -12 0 -8 -12 4 -10 -5 -29 -26 -53 -18 -20 -26 -34
-19 -29 7 4 12 2 12 -4 0 -6 4 -9 10 -5 5 3 6 13 3 22 -4 11 -3 14 5 9 7 -4
12 -16 12 -27 0 -21 7 -23 30 -9 20 12 44 -8 30 -25 -18 -21 19 -40 46 -23 6
4 22 0 35 -10 27 -18 52 -25 43 -11 -3 5 1 9 8 9 16 0 52 -39 44 -48 -3 -3 -6
-2 -6 2 0 4 -6 1 -14 -6 -8 -7 -12 -16 -10 -20 2 -3 -4 -4 -15 -1 -13 3 -17
11 -14 24 4 13 0 19 -11 19 -9 0 -16 -5 -16 -11 0 -5 5 -7 10 -4 6 3 10 1 10
-6 0 -6 -8 -9 -19 -6 -13 3 -21 -1 -24 -15 -5 -16 -9 -18 -25 -9 -26 14 -54
-16 -56 -60 -2 -46 -26 -51 -26 -5 0 25 6 38 19 46 11 5 19 19 18 29 -1 15 -5
17 -18 11 -12 -7 -22 -3 -38 14 -12 12 -18 26 -14 29 3 4 1 7 -5 7 -15 0 -15
-13 -2 -26 7 -7 -1 -10 -25 -10 -38 1 -41 9 -23 53 6 15 12 35 12 43 2 18 -33
82 -51 93 -7 4 -13 15 -13 23 0 10 5 12 13 8 9 -6 9 -5 0 8 -13 15 -8 28 9 28
5 0 6 -5 2 -12 -4 -6 -3 -8 4 -4 6 3 17 0 25 -8 14 -15 27 -12 27 6 0 5 -4 7
-8 4 -13 -8 -52 23 -62 48 -8 20 -9 20 -10 1 -1 -11 -4 -29 -6 -40 -4 -18 -13
-87 -17 -142 -2 -16 -5 -19 -15 -11 -9 8 -11 7 -6 -7 6 -13 4 -16 -6 -10 -8 5
-11 3 -8 -6 3 -8 -1 -20 -9 -27 -8 -8 -12 -32 -11 -58 1 -30 4 -41 10 -32 7 9
8 5 6 -13 -4 -23 -1 -25 30 -27 29 -2 33 0 24 11 -9 10 -8 17 1 27 6 7 8 11 2
8 -16 -9 -55 10 -55 26 0 24 16 27 38 6 21 -19 21 -19 19 0 -1 20 -6 23 -39
23 -25 0 -23 23 2 30 11 3 18 1 14 -4 -3 -5 1 -9 9 -9 24 0 45 -41 36 -73 -5
-18 -4 -25 3 -21 7 5 8 2 2 -7 -5 -8 -9 -18 -9 -24 0 -5 -15 -9 -32 -8 l-31 3
10 -38 c6 -20 13 -41 16 -47 4 -5 7 -14 7 -20 3 -30 18 -64 27 -59 6 4 8 -2 3
-15 -3 -11 -2 -21 3 -21 5 0 12 9 15 20 3 11 1 20 -4 20 -6 0 -5 8 1 20 7 14
7 20 0 20 -5 0 -10 -7 -10 -16 0 -8 -4 -13 -10 -9 -5 3 -7 12 -3 20 3 8 1 15
-5 15 -14 0 -9 39 11 75 13 25 17 27 22 13 4 -10 11 -18 15 -18 18 0 40 33 40
59 0 16 7 35 17 42 15 13 16 11 9 -26 -4 -22 -8 -46 -8 -52 -1 -7 -7 -13 -14
-13 -6 0 -14 -8 -16 -18 -3 -11 0 -19 8 -19 7 0 11 4 8 9 -3 4 4 8 15 8 10 0
21 -6 24 -12 3 -10 9 -10 25 -1 33 20 32 4 -2 -45 -18 -26 -36 -55 -39 -64 -4
-10 -11 -18 -16 -18 -5 0 -13 -9 -16 -21 -6 -19 -8 -19 -30 -5 -15 10 -26 12
-30 6 -3 -6 2 -10 11 -10 20 0 11 -13 -11 -16 -9 -1 -19 13 -27 39 -7 23 -18
52 -24 65 l-12 23 -6 -28 c-6 -21 -9 -24 -17 -12 -6 10 -9 11 -9 1 0 -7 -4
-10 -10 -7 -6 4 -7 -1 -3 -11 4 -12 3 -15 -5 -10 -19 12 -14 1 23 -45 42 -53
44 -62 8 -43 -41 21 -163 16 -163 -7 0 -5 10 -5 23 0 37 13 117 14 117 1 0 -6
4 -9 9 -5 20 12 43 -28 39 -66 -2 -21 0 -35 3 -31 7 6 13 68 10 98 -1 6 -15
28 -31 49 -23 29 -27 40 -18 47 18 11 28 10 28 -3 0 -5 -5 -7 -12 -3 -12 8 -9
1 29 -55 13 -19 23 -29 23 -23 0 5 6 12 14 15 8 3 20 -9 32 -32 16 -32 22 -36
32 -25 10 11 10 14 1 14 -7 0 -9 3 -6 7 4 3 0 15 -10 25 -9 10 -13 21 -9 26 4
4 13 -1 20 -11 17 -22 21 -22 23 5 3 29 38 64 48 47 5 -8 4 -10 -3 -5 -10 6
-17 -7 -9 -17 1 -2 -4 -11 -11 -20 -7 -8 -15 -28 -18 -43 -3 -16 -10 -32 -17
-36 -6 -4 -8 -10 -4 -14 11 -12 35 15 48 54 7 20 18 47 26 59 8 12 12 27 8 33
-4 6 -3 10 2 9 19 -3 31 2 37 17 4 10 2 13 -7 8 -8 -6 -8 -3 1 9 8 9 10 22 6
28 -4 8 -3 9 4 5 6 -4 17 2 24 14 7 11 20 20 30 20 9 0 19 4 23 10 3 5 12 7
20 3 9 -3 22 0 30 7 12 10 18 10 30 0 16 -13 21 -35 6 -25 -5 3 -12 1 -16 -5
-6 -10 6 -14 35 -11 13 2 13 1 0 -8 -8 -5 -17 -8 -20 -6 -3 1 -11 -3 -18 -11
-7 -8 -10 -14 -7 -14 3 0 1 -9 -6 -21 -9 -17 -7 -25 10 -43 12 -12 21 -29 21
-38 0 -11 6 -15 20 -11 26 7 34 19 19 29 -8 4 -9 3 -5 -4 4 -7 3 -12 -2 -12
-6 0 -15 14 -21 30 -8 25 -7 38 10 70 18 35 26 56 28 83 1 4 8 7 16 7 9 0 12
-6 9 -15 -4 -8 -1 -15 6 -15 6 0 9 4 6 8 -3 5 2 9 10 9 10 0 11 -4 4 -11 -16
-16 -12 -25 9 -23 11 1 17 6 13 12 -10 15 -13 45 -4 44 22 -4 32 3 32 21 0 14
5 18 18 14 13 -5 14 -4 3 4 -8 6 -10 15 -6 22 6 9 4 11 -5 5 -10 -6 -12 -4 -7
9 4 10 7 22 7 27 0 6 5 7 11 3 8 -5 10 3 7 25 -3 18 -1 34 4 37 4 3 8 14 8 25
0 10 5 19 11 19 5 0 9 8 7 18 -1 9 1 23 5 29 4 7 3 21 -3 32 -5 11 -7 27 -4
35 4 9 1 22 -5 30 -6 7 -9 20 -5 29 3 8 1 18 -5 21 -6 4 -8 13 -5 20 3 8 1 17
-5 21 -6 3 -11 19 -11 36 0 16 -4 29 -10 29 -6 0 -6 9 0 25 6 17 6 25 -1 25
-6 0 -7 5 -4 11 4 6 14 8 23 4 9 -3 13 -3 10 1 -4 3 0 21 9 38 18 35 26 104
18 154 -11 62 -101 132 -167 132 l-33 -1 30 -13z m-21 -83 c-14 -14 -18 -29
-14 -48 1 -5 -7 -2 -17 6 -10 9 -25 14 -33 11 -8 -2 -12 -1 -7 3 4 5 17 9 30
10 17 2 22 8 20 28 -1 23 1 25 17 15 15 -10 16 -14 4 -25z m-200 -7 c14 -22
14 -27 1 -40 -8 -8 -11 -16 -6 -18 6 -2 11 -31 13 -65 2 -33 6 -59 11 -56 4 2
14 -12 22 -31 9 -20 20 -36 25 -36 6 0 10 -7 10 -16 0 -10 -6 -14 -15 -10 -20
7 -19 -1 3 -28 11 -15 27 -22 45 -22 15 1 27 -2 27 -6 0 -4 -5 -8 -11 -8 -8 0
-7 -5 2 -16 10 -13 10 -17 -2 -25 -11 -7 -10 -9 5 -9 14 0 17 5 12 25 -5 18
-2 25 9 25 8 0 15 5 15 10 0 6 9 10 20 10 14 0 18 5 13 18 -6 16 -6 16 10 0 9
-9 17 -25 17 -36 0 -25 31 -33 55 -16 39 29 84 2 47 -28 -11 -9 -14 -10 -8 0
4 6 2 12 -3 12 -6 0 -11 -6 -11 -12 0 -8 -3 -9 -8 -3 -12 17 -35 17 -29 0 4
-8 2 -15 -3 -15 -6 0 -10 8 -10 17 0 13 -3 14 -12 5 -8 -8 -8 -15 1 -25 6 -8
9 -22 5 -31 -3 -9 -1 -16 5 -16 6 0 8 -6 5 -13 -2 -7 -1 -24 4 -37 6 -16 4
-33 -5 -51 -8 -15 -15 -41 -16 -58 -1 -17 -5 -31 -9 -31 -5 0 -8 4 -8 9 0 5
-11 23 -25 39 -13 16 -21 33 -17 37 4 5 1 5 -6 1 -8 -5 -16 2 -22 20 -6 15
-18 33 -27 39 -15 11 -15 13 5 19 12 4 22 11 22 14 0 10 -37 41 -43 36 -2 -2
-3 7 -3 20 1 14 5 28 9 32 7 7 -10 34 -22 34 -10 0 -8 -144 3 -151 13 -10 -8
-19 -23 -10 -10 6 -10 13 -2 28 12 23 6 33 -19 33 -23 0 -37 94 -19 116 10 12
9 18 0 27 -10 9 -11 8 -6 -5 4 -10 3 -18 -3 -18 -5 0 -12 14 -16 30 -3 19 -15
34 -30 41 -14 7 -27 18 -30 26 -4 11 -1 11 14 3 11 -6 20 -7 20 -3 0 4 4 2 9
-5 6 -10 10 -9 14 7 3 12 1 19 -3 16 -5 -3 -11 1 -13 7 -3 7 -6 5 -6 -6 -2
-39 -16 -3 -17 42 0 26 -4 56 -7 68 -5 15 0 28 17 47 13 14 22 28 19 31 -3 2
-16 -7 -28 -22 -21 -23 -23 -24 -21 -7 2 11 -2 23 -8 27 -6 5 -2 8 11 8 16 0
21 4 17 15 -10 24 12 17 30 -9z m-56 -137 c-7 -5 -19 -9 -27 -9 -11 0 -11 3 0
17 10 11 10 14 2 9 -7 -4 -13 -3 -13 3 0 5 10 11 23 13 25 3 36 -20 15 -33z
m-53 -20 c-3 -5 1 -6 9 -3 10 4 16 1 16 -7 1 -9 4 -8 11 4 5 9 15 17 21 17 9
0 9 -3 0 -12 -9 -9 -9 -15 1 -27 9 -12 9 -13 0 -7 -9 5 -13 1 -13 -10 0 -10
-3 -15 -6 -11 -3 3 -6 9 -6 14 0 15 -20 33 -30 27 -12 -7 -29 16 -22 28 3 5
10 6 15 2 5 -3 7 -10 4 -15z m252 -138 c7 -9 12 -20 12 -26 0 -5 -4 -2 -10 8
-9 15 -13 16 -26 5 -12 -10 -17 -9 -28 5 -6 9 -16 13 -21 9 -4 -4 -2 1 5 11
16 20 48 14 68 -12z m173 -5 c0 -8 -4 -18 -10 -21 -5 -3 -10 -1 -10 6 0 8 -6
7 -18 -4 -10 -9 -23 -13 -30 -8 -10 6 -10 10 0 18 31 24 68 29 68 9z m49 -110
c-2 -2 -26 -7 -54 -12 -45 -6 -49 -5 -37 9 15 17 71 27 86 15 5 -4 8 -10 5
-12z m1 -45 c10 -20 -2 -24 -27 -8 -6 4 -14 3 -18 -3 -8 -12 -55 -13 -55 -1 0
10 45 29 72 30 10 1 22 -8 28 -18z m-302 2 c-20 -5 -20 -8 -12 -39 5 -18 12
-21 46 -18 23 2 38 1 35 -3 -4 -3 -2 -12 5 -20 9 -11 7 -15 -10 -20 -12 -3
-22 -9 -22 -14 0 -13 24 -11 40 4 12 10 12 9 2 -4 -10 -14 -8 -19 12 -33 14
-9 32 -16 41 -16 8 0 16 -8 16 -17 2 -20 5 -40 9 -63 1 -9 5 -4 10 10 7 24 8
24 15 5 5 -11 13 -23 19 -27 15 -10 16 -36 1 -42 -7 -2 -15 4 -18 15 -3 10
-10 19 -16 19 -9 0 -9 -6 0 -21 7 -13 7 -24 2 -28 -6 -3 -13 -13 -16 -21 -4
-12 -6 -11 -6 3 -1 10 -5 16 -10 13 -5 -3 -7 -15 -4 -26 4 -15 0 -20 -13 -20
-11 0 -15 3 -9 8 14 9 17 52 4 52 -5 0 -8 -3 -8 -7 3 -20 -2 -34 -11 -28 -5 3
-10 26 -10 51 0 41 1 43 19 32 11 -7 18 -15 15 -19 -2 -4 3 -12 10 -18 10 -9
16 -9 21 -1 4 6 3 9 -2 8 -4 -2 -8 0 -8 3 0 3 -7 14 -15 23 -8 10 -15 25 -16
34 -7 47 -17 63 -50 78 -20 10 -41 28 -47 41 -6 13 -16 22 -23 19 -9 -3 -11 1
-7 12 5 14 4 15 -8 4 -12 -11 -11 -15 4 -26 21 -16 22 -23 2 -23 -8 0 -19 13
-24 29 -8 23 -7 28 5 28 12 0 13 8 8 35 -6 32 -4 35 17 34 17 -1 19 -3 7 -6z
m305 -52 c12 -12 7 -14 -43 -11 -43 2 -56 10 -39 21 17 11 68 4 82 -10z m-29
-31 c35 -13 34 -32 -1 -24 -53 11 -63 15 -63 25 0 12 32 12 64 -1z m-511 -17
c-3 -7 -9 -13 -15 -13 -5 0 -6 -5 -2 -12 5 -8 11 -6 20 7 12 16 13 16 11 -3 0
-11 -5 -18 -9 -16 -4 3 -8 -1 -8 -10 0 -8 -7 -13 -15 -12 -19 3 -32 16 -16 16
7 0 11 7 8 15 -4 8 -2 17 4 20 5 4 7 10 5 14 -3 4 1 8 8 8 8 0 12 -6 9 -14z
m505 -29 c26 -18 21 -39 -6 -24 -9 5 -29 11 -44 15 -16 3 -28 10 -28 15 0 16
53 12 78 -6z m-34 -35 c24 -11 44 -39 27 -39 -16 0 -71 32 -71 41 0 12 14 11
44 -2z m-7 -44 c26 -20 30 -29 21 -39 -9 -10 -18 -6 -40 20 -45 51 -36 60 19
19z m-415 -51 c-6 -45 -13 -64 -22 -64 -6 0 -9 16 -6 38 3 20 5 41 5 45 1 5 7
7 14 4 6 -2 11 -13 9 -23z m203 -14 c3 -5 1 -10 -6 -10 -7 0 -8 -5 -3 -12 15
-21 11 -71 -6 -73 -12 -2 -15 8 -14 44 0 25 1 49 2 54 3 10 20 9 27 -3z m51
-1 c14 -24 12 -67 -5 -72 -13 -3 -17 5 -19 40 -3 41 9 56 24 32z m-108 -55
c-2 -27 -8 -39 -18 -39 -11 0 -14 10 -11 40 1 22 5 44 8 48 11 18 24 -12 21
-49z m290 22 c-6 -11 -11 -22 -10 -23 1 -2 0 -2 -1 0 -2 1 -11 -4 -20 -11 -9
-8 -21 -11 -26 -8 -14 9 -1 38 14 32 14 -5 29 20 20 34 -3 4 4 6 15 3 17 -4
18 -8 8 -27z m-526 -194 c1 -19 6 -36 10 -38 4 -3 8 -10 8 -17 0 -6 -7 -1 -17
12 -17 25 -29 101 -13 85 5 -5 10 -24 12 -42z"/>
<path d="M750 1653 c14 -3 30 -8 35 -13 6 -4 19 -4 30 1 23 9 25 8 -40 13 -27
2 -39 1 -25 -1z"/>
<path d="M1458 1568 c-3 -7 -6 -34 -7 -59 -2 -44 -1 -47 26 -52 15 -3 29 -4
31 -3 6 6 -11 36 -20 36 -5 0 -6 -5 -2 -12 5 -7 3 -8 -5 -4 -7 5 -10 11 -7 14
3 3 1 11 -4 17 -8 9 -6 14 5 19 9 3 13 11 9 17 -4 7 -3 9 4 5 6 -3 13 -2 17 3
3 6 -3 15 -14 20 -25 14 -28 14 -33 -1z"/>
<path d="M987 1538 c-30 -24 -44 -106 -21 -126 4 -4 5 0 1 9 -4 12 1 17 19 17
13 0 21 -4 19 -8 -3 -5 5 -6 17 -2 22 5 22 6 -5 15 -15 5 -27 13 -27 18 0 4 8
6 18 3 13 -5 14 -4 3 4 -11 8 -10 11 4 19 15 9 16 11 1 16 -9 4 -16 11 -16 17
0 6 5 8 12 4 6 -4 8 -3 4 4 -3 5 0 13 6 15 9 4 8 6 -3 6 -8 1 -23 -5 -32 -11z
m17 -37 c3 -5 -1 -14 -10 -21 -8 -7 -12 -20 -9 -29 5 -12 3 -13 -6 -4 -7 7 -9
22 -5 37 6 26 20 34 30 17z"/>
<path d="M1486 1521 c-4 -5 -2 -12 4 -16 5 -3 10 -3 10 1 0 3 7 1 15 -6 15
-13 39 -5 29 11 -3 5 -10 7 -15 3 -5 -3 -16 -1 -24 6 -8 7 -15 7 -19 1z"/>
<path d="M1390 1478 c0 -25 -3 -29 -10 -18 -8 13 -10 12 -10 -3 0 -10 5 -17
12 -15 15 5 29 56 17 64 -5 3 -9 -10 -9 -28z"/>
<path d="M769 1444 c-10 -13 -10 -17 2 -25 19 -12 22 -11 45 7 18 14 18 15 -4
4 -12 -6 -27 -8 -32 -5 -15 9 -1 27 16 21 8 -3 14 -1 14 4 0 16 -26 12 -41 -6z"/>
<path d="M1500 1402 c0 -5 -13 -8 -30 -7 -16 1 -30 -3 -30 -8 0 -6 -3 -8 -6
-4 -4 3 -14 -1 -22 -10 -13 -13 -17 -13 -21 -2 -5 18 -23 29 -33 23 -13 -9 -9
-24 7 -24 8 0 15 -5 15 -11 0 -5 -4 -7 -10 -4 -5 3 -10 2 -10 -4 0 -12 38 -9
65 6 11 6 36 13 57 17 35 6 62 36 33 36 -8 0 -15 -4 -15 -8z"/>
<path d="M911 1375 c1 -11 4 -31 8 -45 l7 -25 8 29 c5 21 3 34 -8 45 -15 14
-16 13 -15 -4z"/>
<path d="M204 1369 c-3 -5 2 -9 10 -9 10 0 16 -9 16 -25 0 -15 5 -24 13 -22 6
1 11 -4 9 -11 -1 -8 2 -11 8 -7 6 4 3 16 -8 33 -16 25 -16 26 1 19 28 -11 20
0 -13 16 -17 9 -32 11 -36 6z"/>
<path d="M748 1363 c-5 -27 -2 -70 5 -66 4 3 7 12 5 21 -1 10 1 22 5 29 4 6 3
14 -3 18 -5 3 -11 3 -12 -2z"/>
<path d="M916 1295 c-20 -17 -32 -22 -36 -14 -5 7 -10 4 -14 -7 -4 -10 -4 -16
-1 -12 9 8 45 -23 39 -34 -3 -4 2 -5 10 -2 8 3 18 14 21 25 4 11 10 17 14 15
4 -3 5 8 3 25 -2 16 -5 29 -6 29 0 0 -14 -11 -30 -25z"/>
<path d="M746 1211 c-15 -24 -33 -58 -39 -74 -9 -28 -11 -29 -18 -11 -11 27
-11 36 0 30 5 -4 8 1 7 10 -4 25 -44 42 -90 36 -53 -5 -60 -12 -14 -12 28 0
42 -7 62 -31 33 -39 40 -67 32 -132 -16 -124 -108 -186 -212 -142 l-36 15 7
-30 c8 -38 -6 -65 -16 -30 -6 23 -7 22 -9 -10 -1 -19 -1 -42 0 -49 2 -13 -1
-13 -17 0 -17 13 -17 13 -4 -4 11 -13 11 -23 3 -41 -8 -17 -7 -27 1 -35 7 -7
12 -17 12 -23 0 -5 18 -11 41 -12 44 -2 131 -41 179 -80 38 -30 28 -42 -22
-25 -21 7 -32 14 -25 17 17 5 -15 31 -39 32 -9 0 -20 7 -23 16 -5 14 -9 14
-23 3 -15 -12 -16 -12 -9 6 6 16 5 18 -5 8 -15 -15 -33 -17 -24 -3 4 6 -1 7
-11 3 -13 -5 -15 -3 -9 7 6 10 4 11 -6 4 -8 -4 -20 -9 -28 -11 -20 -3 -40 -25
-43 -48 -2 -11 -7 -26 -12 -33 -7 -11 -4 -12 10 -5 24 12 80 1 77 -15 -2 -6 4
-9 12 -6 10 4 15 0 15 -11 0 -10 -5 -14 -12 -9 -7 4 -10 4 -6 -1 4 -4 3 -16
-3 -26 -6 -13 -6 -19 1 -19 5 0 9 -11 8 -24 -3 -34 -28 -19 -42 25 -11 34 -51
62 -88 63 -10 1 -18 4 -18 9 0 31 1 37 11 37 6 0 8 -7 4 -17 -5 -14 -4 -15 6
-6 10 10 9 17 -5 32 -11 12 -19 40 -21 71 -2 29 -8 57 -13 63 -5 7 -12 25 -16
41 -10 41 -44 86 -64 86 -13 0 -10 -6 10 -23 20 -16 33 -43 48 -97 25 -94 25
-100 -3 -100 -37 0 -63 -35 -51 -68 7 -19 6 -37 -4 -64 -13 -34 -13 -39 7 -67
14 -20 20 -38 16 -51 -16 -49 68 -220 108 -220 7 0 0 10 -14 23 -14 12 -34 36
-44 52 l-18 30 22 -19 c12 -11 39 -21 61 -22 46 -2 87 -25 76 -42 -4 -7 -19
-10 -36 -7 l-29 5 1 -90 c0 -58 5 -89 11 -87 11 3 11 112 1 152 -4 16 -3 17 5
5 7 -10 11 -11 11 -3 0 7 7 10 17 6 15 -6 15 -7 -2 -13 -11 -4 -14 -9 -8 -13
6 -4 16 0 23 8 7 8 16 15 21 15 13 0 11 -47 -3 -69 -6 -11 -8 -26 -3 -37 5
-11 7 -22 7 -27 -1 -4 8 -7 20 -7 l22 0 -22 20 c-28 27 -28 41 3 70 14 13 25
20 25 16 0 -5 7 -2 17 5 9 8 19 12 22 10 3 -3 8 4 10 14 3 16 1 17 -11 7 -11
-9 -17 -9 -26 0 -9 9 -12 9 -12 1 0 -6 6 -14 13 -16 6 -3 0 -5 -15 -4 -16 1
-28 7 -28 15 0 7 5 10 12 6 7 -4 8 -3 4 5 -5 7 -17 9 -29 5 l-22 -6 23 21 c12
12 22 25 22 28 0 4 -5 2 -12 -5 -16 -16 -31 -15 -21 0 12 20 12 38 1 38 -6 0
-8 -7 -5 -15 8 -19 -5 -26 -23 -14 -9 5 -10 9 -3 9 6 0 11 9 10 19 -1 13 -8
18 -24 16 -13 -1 -23 2 -23 6 0 5 5 9 10 9 6 0 5 6 -2 14 -16 17 -25 4 -23
-33 1 -17 -3 -28 -12 -28 -7 0 -13 4 -13 9 0 5 -4 7 -8 4 -15 -9 -55 32 -68
70 -17 49 -9 105 14 97 10 -4 13 -2 8 5 -5 8 0 12 14 12 14 0 19 4 14 13 -5 8
-2 8 9 -2 18 -14 22 -5 9 17 -9 13 -42 7 -42 -8 0 -4 -15 -2 -34 4 -29 9 -32
13 -26 36 6 21 12 25 39 22 20 -1 30 2 26 8 -3 5 -12 10 -19 10 -7 0 -21 9
-31 20 -15 17 -16 24 -7 45 6 14 16 25 22 25 8 0 8 -7 0 -22 l-11 -23 17 23
c19 26 39 29 48 6 9 -23 -12 -57 -32 -50 -11 4 -8 -1 7 -14 13 -11 37 -20 55
-21 17 0 24 -3 16 -6 -8 -3 -18 -10 -21 -16 -11 -16 2 -47 20 -46 10 0 11 2 4
6 -19 7 -16 40 4 47 9 4 23 0 32 -9 9 -8 10 -15 4 -15 -6 0 -14 -7 -17 -16 -5
-14 -4 -15 9 -4 23 19 28 6 8 -19 -13 -15 -30 -22 -62 -23 -36 -1 -41 -3 -27
-13 8 -7 13 -14 10 -17 -2 -3 7 -3 21 -1 13 3 22 9 19 14 -3 5 0 9 5 9 6 0 11
-7 11 -16 0 -8 5 -12 10 -9 6 4 8 11 5 16 -4 5 1 9 10 9 10 0 13 -5 9 -12 -4
-6 -3 -8 3 -5 6 4 27 0 47 -8 36 -15 37 -15 26 5 -6 11 -10 44 -8 73 2 43 7
52 23 55 16 3 18 1 8 -9 -20 -20 -17 -69 4 -69 9 0 13 3 10 7 -4 3 -2 12 4 20
9 10 8 13 -6 13 -18 0 -16 21 2 27 11 4 23 -28 23 -65 l0 -24 35 22 c19 12 40
18 46 14 8 -5 9 -3 4 6 -6 9 -2 10 15 5 15 -5 20 -4 16 4 -4 6 -1 11 6 11 8 0
23 7 34 15 17 14 15 14 -20 0 -49 -19 -49 -19 -43 5 5 21 -7 27 -18 9 -4 -6
-14 -8 -24 -5 -14 5 -14 4 1 -7 10 -8 15 -17 11 -21 -4 -3 -16 2 -27 13 -31
28 -133 79 -171 87 -31 6 -33 8 -23 30 8 18 19 24 43 24 35 0 138 -48 173 -81
13 -12 30 -18 39 -15 8 4 22 1 29 -5 25 -21 73 -1 169 71 52 38 102 70 111 70
11 0 13 6 8 23 -4 12 -13 42 -19 66 -11 41 -15 45 -56 56 -92 25 -194 58 -204
66 -5 6 3 7 22 3 35 -7 44 2 32 31 -4 11 -8 14 -8 7 -1 -7 -6 -10 -13 -6 -7 5
-9 2 -5 -9 4 -11 2 -14 -8 -10 -8 3 -12 9 -9 14 3 5 -1 9 -8 9 -9 1 -8 4 3 13
9 7 15 20 13 30 -2 12 2 17 11 13 9 -3 12 0 8 10 -6 15 -5 15 74 -2 18 -3 30
-10 27 -15 -3 -5 -10 -6 -16 -3 -7 4 -8 2 -4 -5 5 -8 12 -9 20 -2 8 7 26 6 54
-1 49 -12 57 -30 10 -21 -18 3 -30 3 -27 -1 4 -4 16 -8 28 -11 11 -2 25 -6 29
-9 4 -2 9 4 9 16 1 11 16 53 33 94 17 41 32 88 33 104 1 17 5 30 10 30 4 0 7
12 7 26 0 14 -4 23 -10 19 -6 -4 -8 -10 -5 -14 2 -5 -2 -17 -11 -27 -14 -18
-15 -18 -9 4 8 26 -15 31 -35 6 -11 -12 -11 -15 1 -12 8 2 13 -2 12 -9 -2 -7
6 -10 19 -8 16 3 19 2 10 -7 -6 -6 -18 -7 -29 -3 -10 5 -21 8 -25 7 -3 -1 -5
10 -3 23 1 14 -1 26 -4 26 -18 4 -63 8 -60 6 2 -2 13 -9 23 -17 13 -10 17 -10
12 -2 -4 6 -2 12 3 12 6 0 11 -7 11 -15 0 -17 -16 -20 -25 -5 -3 6 -16 9 -28
9 -17 -1 -18 -2 -4 -6 9 -2 17 -9 17 -14 0 -6 -8 -5 -21 1 -17 9 -18 14 -8 26
7 8 8 14 3 13 -17 -4 -44 13 -37 24 3 5 1 7 -5 3 -6 -3 -12 2 -14 11 -3 13
-11 7 -32 -26z m51 -17 c5 -15 -35 -25 -44 -12 -4 7 -1 8 7 3 10 -6 12 -4 7 9
-5 13 -2 17 10 14 9 -2 18 -8 20 -14z m47 -49 c16 -3 39 -11 50 -17 12 -6 22
-11 24 -10 9 7 22 0 19 -10 -1 -7 4 -12 11 -10 8 1 11 -2 7 -7 -3 -6 -13 -7
-21 -4 -14 5 -15 3 -5 -15 10 -18 9 -22 -4 -22 -8 0 -14 -3 -12 -7 2 -9 -6
-13 -29 -13 -8 0 -12 5 -9 10 5 8 12 7 23 -2 15 -10 15 -10 4 2 -11 13 -62 23
-62 12 0 -8 29 -32 39 -32 5 0 12 -4 15 -9 3 -4 -6 -6 -19 -3 -16 3 -25 0 -25
-8 0 -10 -3 -10 -15 0 -12 10 -15 10 -15 -1 0 -8 -5 -6 -13 6 -10 12 -16 15
-21 6 -10 -15 -44 4 -57 32 -9 20 -9 20 -6 -5 2 -15 0 -25 -4 -22 -14 8 -11
84 4 85 9 0 9 2 0 5 -9 4 -9 11 -1 30 12 27 27 28 122 9z m-340 -297 c-4 -6 1
-8 13 -4 27 9 146 10 172 1 12 -3 18 -11 15 -17 -5 -7 -2 -8 6 -3 7 4 16 2 21
-6 12 -20 11 -31 -3 -23 -6 4 -8 3 -5 -3 4 -6 0 -13 -8 -17 -9 -3 -12 -12 -8
-23 6 -15 4 -16 -9 -6 -8 7 -18 10 -21 6 -4 -3 -9 2 -13 11 -3 9 -10 13 -15
10 -10 -6 -12 9 -3 19 8 8 35 -3 29 -13 -3 -5 5 -6 16 -3 20 6 20 7 6 18 -9 7
-15 15 -12 19 3 3 0 2 -7 -4 -8 -6 -16 -4 -25 8 -12 16 -13 16 -7 -1 4 -12 2
-17 -7 -15 -12 3 -14 -9 -10 -42 0 -5 7 -7 15 -4 8 3 17 0 21 -5 3 -6 10 -9
14 -6 10 6 68 -56 83 -90 7 -15 20 -25 31 -25 20 0 20 1 -1 21 -12 11 -20 24
-17 30 10 16 25 10 18 -8 -5 -12 -3 -14 8 -7 8 5 17 9 22 9 4 0 6 5 5 10 -2 6
-17 9 -34 9 -32 -2 -35 4 -19 38 8 21 29 13 21 -8 -3 -8 -1 -14 4 -14 6 0 10
5 10 12 0 6 3 8 6 5 4 -3 15 -2 25 4 24 12 25 1 2 -18 -10 -8 -13 -12 -6 -9 6
4 16 -2 22 -11 9 -15 10 -13 9 12 -2 42 -6 47 -29 35 -13 -8 -19 -7 -19 0 0 6
-4 9 -9 5 -6 -3 -14 3 -20 12 -8 14 -10 15 -11 3 0 -13 -2 -13 -9 -1 -8 12
-12 12 -25 2 -18 -15 -21 -31 -6 -31 5 0 9 3 7 8 -1 4 2 8 8 10 5 2 11 -1 13
-7 5 -14 -23 -25 -43 -17 -13 4 -12 9 2 34 11 20 22 28 33 24 12 -5 11 -2 -2
12 -24 24 -23 43 1 22 11 -10 24 -15 30 -12 5 4 12 2 16 -4 4 -6 11 -7 17 -4
7 5 8 2 3 -6 -6 -10 -4 -12 9 -7 14 6 15 3 5 -14 -10 -19 -9 -20 13 -14 12 4
27 13 31 19 5 6 7 0 4 -16 -3 -18 0 -25 9 -21 16 6 28 -14 13 -23 -8 -4 -9 -3
-5 4 8 14 -3 15 -22 3 -11 -7 -11 -9 2 -14 9 -4 15 -14 15 -24 -1 -16 -2 -15
-6 1 -5 18 -6 18 -19 -5 -7 -13 -13 -18 -14 -11 0 22 -20 13 -20 -10 0 -19 -2
-20 -11 -8 -9 12 -10 11 -6 -5 3 -16 -1 -21 -17 -23 -11 0 -22 -6 -24 -11 -5
-14 -22 4 -41 41 -8 16 -25 35 -38 43 -31 21 -30 8 2 -17 14 -11 22 -24 19
-29 -3 -6 -14 -1 -24 11 -9 11 -21 20 -26 20 -4 0 -3 -5 4 -12 9 -9 7 -14 -5
-23 -13 -10 -13 -14 -3 -20 8 -5 11 -4 7 2 -4 6 0 13 8 17 17 6 35 -22 40 -65
4 -32 0 -36 -21 -15 -17 17 -19 30 -2 20 7 -4 8 -3 4 5 -5 8 -12 9 -19 3 -8
-6 -19 -3 -32 11 -11 11 -13 16 -5 12 8 -5 4 3 -10 17 -14 13 -28 23 -32 21
-5 -2 -8 0 -8 6 0 5 -10 11 -22 13 -13 2 -22 9 -20 17 2 8 -3 11 -12 8 -9 -4
-31 0 -51 9 -19 8 -46 15 -60 16 -28 3 -31 8 -13 26 7 7 8 12 3 12 -4 0 0 9
10 20 18 20 18 21 -1 14 -17 -7 -18 -6 -5 10 10 12 22 15 40 11 25 -6 25 -6 7
14 -21 23 -14 41 14 34 11 -3 17 -10 14 -15z m248 -239 c10 -16 12 -27 6 -23
-8 5 -9 2 -5 -9 3 -10 3 -17 -2 -17 -5 0 -11 10 -14 23 -2 12 -8 30 -12 40
-12 29 9 19 27 -14z"/>
<path d="M780 1109 c-13 -9 -13 -10 0 -6 8 2 20 -3 25 -10 6 -8 19 -16 30 -18
11 -2 20 -4 20 -5 0 -1 16 -3 35 -5 30 -4 32 -3 15 7 -29 16 -29 16 -16 32 10
12 9 14 -6 11 -10 -2 -22 -4 -28 -4 -5 -1 -3 -5 5 -11 8 -5 11 -13 6 -17 -4
-4 -17 3 -29 17 -12 16 -18 18 -14 8 4 -10 2 -18 -3 -18 -6 0 -10 7 -10 15 0
18 -9 19 -30 4z"/>
<path d="M803 1059 c9 -5 17 -18 17 -27 0 -11 -3 -13 -8 -6 -4 6 -16 16 -28
22 -20 11 -23 5 -15 -37 1 -3 6 0 13 7 7 7 16 8 23 2 6 -5 16 -6 23 -1 14 8
-12 51 -31 51 -7 0 -4 -5 6 -11z"/>
<path d="M484 834 c18 -18 13 -34 -12 -34 -14 0 -15 -2 -2 -9 8 -6 17 -8 21
-5 4 2 11 -1 15 -7 4 -8 3 -9 -4 -5 -17 10 -15 1 8 -36 11 -18 20 -26 20 -18
0 13 2 13 11 0 9 -13 10 -12 5 3 -6 18 9 24 19 7 4 -6 11 -7 17 -4 7 5 9 0 6
-14 -4 -12 -3 -24 1 -26 4 -3 8 6 9 20 1 17 -6 28 -28 39 -32 17 -41 31 -12
20 13 -5 14 -4 5 6 -10 10 -15 9 -28 -1 -9 -7 -15 -8 -15 -2 0 6 -3 19 -6 29
-3 10 -2 14 3 8 4 -5 19 -12 33 -13 14 -2 30 -5 35 -5 6 -1 13 -6 16 -10 4 -5
9 3 11 17 6 29 -6 35 -17 9 -7 -16 -9 -15 -15 7 -5 16 -8 19 -9 8 -1 -24 -10
-23 -53 7 -42 28 -57 33 -34 9z"/>
<path d="M535 1190 c-3 -6 -19 -17 -35 -25 -23 -12 -34 -13 -57 -3 -39 16 -45
16 -70 0 -12 -8 -26 -11 -31 -8 -6 3 -12 -3 -15 -14 -6 -22 12 -23 30 0 6 8
15 12 19 7 4 -4 16 0 26 10 17 15 18 15 18 -7 0 -19 3 -21 12 -12 15 15 28 15
28 1 0 -5 -5 -7 -12 -3 -6 4 -8 3 -5 -3 4 -6 0 -17 -9 -24 -17 -14 -56 -21
-49 -8 3 4 -5 9 -16 12 -18 5 -20 2 -15 -16 4 -12 9 -35 11 -52 4 -24 4 -26
-4 -10 -8 17 -10 17 -10 3 -1 -9 -12 -28 -26 -42 -14 -14 -25 -30 -25 -35 0
-15 83 -69 99 -63 8 3 11 0 7 -6 -3 -6 -3 -13 2 -16 4 -2 9 6 10 19 1 16 -9
32 -31 49 -19 16 -26 26 -17 26 9 1 6 6 -9 14 -19 11 -21 14 -7 19 9 4 16 1
16 -6 1 -7 7 5 15 26 14 42 86 117 135 142 16 8 30 20 30 25 0 13 -7 13 -15 0z
m-175 -242 c30 -21 42 -40 23 -37 -5 1 -7 5 -5 10 1 5 -4 9 -12 9 -16 0 -66
39 -50 40 6 0 26 -10 44 -22z"/>
<path d="M1121 1163 c-1 -35 2 -43 17 -43 14 0 15 2 2 10 -13 8 -12 10 3 10 9
0 17 5 17 12 0 6 -3 8 -7 4 -4 -3 -12 6 -19 21 -12 28 -12 28 -13 -14z"/>
<path d="M558 1171 c-2 -3 -29 -24 -61 -45 -65 -44 -107 -97 -107 -136 0 -50
86 -110 157 -110 13 0 37 14 55 31 29 28 30 29 4 10 -28 -20 -48 -21 -97 -6
-16 5 -19 4 -14 -5 5 -9 4 -11 -4 -6 -6 4 -9 11 -6 16 3 5 -6 17 -20 26 -15
10 -24 23 -21 31 3 8 1 11 -4 8 -13 -8 -24 21 -16 42 6 15 8 15 17 3 9 -13 10
-13 8 0 -3 32 3 40 58 74 65 41 92 45 118 16 20 -22 27 -106 12 -150 l-9 -25
17 24 c32 43 19 138 -22 171 -16 12 -20 20 -11 20 8 0 19 -4 26 -10 7 -5 6 -3
-2 6 -13 15 -73 26 -78 15z"/>
<path d="M1094 1153 c8 -27 -1 -66 -14 -58 -5 3 -12 0 -16 -7 -4 -7 -4 -10 1
-6 4 4 15 2 23 -5 10 -8 13 -8 9 -1 -4 7 0 14 8 17 11 5 12 13 5 38 -5 17 -12
34 -16 38 -4 3 -3 -4 0 -16z"/>
<path d="M1140 924 c-6 -7 -5 -11 3 -12 44 -6 57 -9 69 -19 31 -24 40 -26 29
-7 -26 47 -28 49 -45 34 -9 -7 -20 -10 -23 -6 -4 4 -1 11 7 16 11 7 9 9 -8 7
-13 -1 -27 -6 -32 -13z"/>
<path d="M90 877 c0 -29 4 -47 12 -47 6 0 8 -3 4 -7 -4 -5 -15 1 -23 12 -15
20 -15 20 -10 -3 5 -22 4 -22 -11 -9 -34 28 -45 31 -33 8 7 -11 17 -21 24 -21
7 -1 0 -8 -15 -16 -31 -16 -34 -26 -15 -43 8 -6 19 -29 26 -51 16 -55 59 -100
91 -95 52 7 68 18 88 57 16 29 19 44 12 58 -6 10 -10 27 -10 37 0 10 -8 30
-17 43 -21 29 -25 48 -12 56 5 3 9 10 9 16 0 7 -6 6 -15 -2 -13 -11 -15 -8
-15 14 0 17 -4 25 -11 21 -6 -4 -8 -13 -5 -21 3 -8 0 -14 -7 -14 -7 0 -4 -5 6
-11 9 -5 17 -14 17 -20 0 -16 -37 24 -43 46 -3 11 -5 5 -4 -14 3 -46 -16 -45
-24 2 -9 55 -19 57 -19 4z m93 -94 c2 -13 -2 -28 -11 -35 -11 -9 -14 -9 -9 -1
4 6 2 15 -4 19 -8 4 -9 3 -5 -4 4 -6 -4 -16 -16 -23 -13 -7 -23 -13 -24 -13 0
-1 -8 7 -18 17 -10 9 -22 14 -28 11 -7 -4 -8 -2 -4 5 4 6 13 8 19 4 7 -4 6 0
-2 10 -12 15 -10 18 10 26 17 6 31 5 46 -5 12 -8 26 -14 30 -14 4 0 2 4 -6 9
-8 5 -16 16 -17 25 -4 25 34 -4 39 -31z m3 -62 c-16 -18 -16 -20 10 -40 27
-21 22 -29 -6 -11 -9 6 -17 5 -22 -3 -13 -20 -9 -30 7 -17 8 6 19 9 25 5 15
-9 1 -28 -16 -21 -8 3 -14 0 -15 -7 0 -9 -2 -8 -6 1 -4 10 -8 10 -19 1 -8 -7
-18 -9 -22 -5 -4 4 2 14 12 22 11 8 14 14 8 14 -19 0 -27 -4 -24 -12 1 -5 -2
-8 -8 -8 -5 0 -10 7 -10 16 0 8 -4 13 -8 10 -4 -2 -14 4 -20 15 -12 19 -12 19
16 5 23 -12 32 -12 42 -3 10 9 11 9 5 -1 -5 -10 -2 -13 10 -10 34 6 26 24 -12
26 -38 3 -63 17 -63 34 0 7 4 7 13 0 6 -5 26 -13 43 -16 23 -5 34 -2 49 14 10
11 20 18 23 15 3 -3 -2 -13 -12 -24z m48 -23 c-7 -11 -32 -10 -39 2 -11 18 5
30 25 18 10 -7 16 -16 14 -20z"/>
<path d="M750 894 c9 -10 10 -15 3 -10 -8 4 -11 2 -7 -7 3 -8 17 -13 34 -12
17 1 30 -3 30 -8 0 -6 3 -8 6 -5 3 3 28 -2 55 -13 47 -16 50 -17 44 -1 -4 9
-7 25 -7 36 1 17 0 17 -12 1 -9 -13 -15 -15 -20 -7 -4 7 -2 12 5 12 7 0 9 3 6
7 -4 3 -17 -2 -29 -13 -12 -10 -18 -14 -15 -8 10 18 -19 36 -65 42 -40 4 -42
3 -28 -14z"/>
<path d="M1573 870 c-2 -22 12 -35 22 -20 3 5 1 10 -6 10 -7 0 -9 3 -6 6 4 4
13 1 22 -6 11 -9 12 -17 4 -32 -9 -16 -8 -19 3 -16 7 3 12 16 11 31 -1 19 2
24 12 20 8 -3 13 -9 10 -13 -3 -5 0 -12 6 -16 8 -4 9 -3 5 4 -4 7 -1 12 8 12
9 0 15 -5 14 -12 -2 -7 3 -13 10 -14 6 -1 17 -2 23 -3 5 0 7 -7 4 -13 -4 -7 0
-5 8 5 15 18 15 18 22 -2 3 -12 13 -21 21 -21 8 0 13 -4 10 -9 -3 -5 0 -14 7
-19 10 -9 13 -6 13 13 0 13 -2 22 -4 20 -3 -3 -20 9 -38 25 -29 25 -57 36
-164 66 -10 2 -16 -3 -17 -16z"/>
<path d="M317 789 c-13 -7 -16 -18 -12 -42 4 -17 7 -32 8 -33 1 0 10 8 20 19
19 19 18 19 -4 12 -22 -7 -23 -7 -9 10 9 11 10 16 3 11 -7 -4 -13 -3 -13 3 0
14 40 25 52 13 14 -14 -9 -80 -30 -85 -16 -4 -16 -5 0 -6 23 -1 51 54 44 85
-7 25 -29 30 -59 13z"/>
<path d="M1690 779 c1 -17 49 -54 58 -44 4 4 1 10 -6 12 -7 3 -22 14 -33 26
-13 15 -19 17 -19 6z"/>
<path d="M1088 706 c-15 -8 -28 -13 -30 -11 -2 2 -4 -8 -4 -21 -1 -15 3 -23
10 -21 6 2 9 12 8 22 -3 16 -1 17 11 6 16 -13 29 -2 33 27 3 15 5 15 -28 -2z"/>
<path d="M1448 703 c7 -11 4 -26 -10 -49 -11 -19 -18 -39 -16 -46 2 -6 10 4
18 23 8 19 18 37 23 40 11 8 -1 49 -14 49 -6 0 -7 -6 -1 -17z"/>
<path d="M1246 691 c-15 -17 -15 -19 1 -32 16 -12 17 -12 5 2 -10 13 -10 18 1
28 17 13 27 5 20 -17 -3 -10 -1 -13 4 -7 4 6 11 12 15 15 4 3 -1 11 -11 17
-15 10 -22 8 -35 -6z"/>
<path d="M1297 654 c-15 -15 -24 -30 -21 -35 3 -5 9 -7 13 -5 4 3 8 -1 8 -9 0
-10 -5 -10 -25 3 -24 16 -25 16 -14 -5 6 -11 8 -24 4 -28 -4 -5 2 -5 13 -1 16
6 18 5 8 -5 -7 -7 -13 -20 -13 -28 0 -11 5 -8 16 8 21 29 28 81 12 81 -7 0 -2
9 10 20 20 19 27 30 18 30 -2 0 -15 -12 -29 -26z"/>
<path d="M1195 591 c2 -12 -1 -21 -6 -21 -6 0 -7 -9 -4 -21 5 -14 3 -19 -3
-15 -6 3 -14 1 -18 -6 -4 -7 -4 -10 1 -6 4 4 16 3 27 -3 16 -9 17 -13 6 -27
-12 -15 -11 -16 5 -3 12 10 15 17 7 25 -14 14 -13 29 3 21 6 -4 3 1 -8 10 -20
17 -19 17 7 11 20 -5 30 -2 37 11 10 20 -13 51 -24 32 -5 -7 -11 -6 -20 1 -11
10 -13 8 -10 -9z"/>
<path d="M1610 599 c0 -5 -4 -8 -8 -5 -12 7 -54 -52 -46 -65 3 -6 -1 -16 -10
-22 -9 -7 -19 -30 -22 -52 -5 -35 -4 -38 8 -20 7 11 13 22 13 25 4 23 18 49
25 45 5 -3 11 -1 15 5 3 6 -1 13 -10 16 -13 6 -12 9 7 23 13 9 25 15 28 14 3
-1 6 10 6 23 1 13 0 24 -2 24 -2 0 -4 -5 -4 -11z"/>
<path d="M1024 515 c3 -36 50 -138 72 -156 19 -16 47 -1 52 27 4 18 3 18 -11
-1 -13 -16 -17 -17 -31 -6 -9 7 -16 19 -16 26 0 7 -6 18 -14 24 -8 7 -17 27
-20 45 -3 18 -13 41 -20 52 -14 18 -14 17 -12 -11z"/>
<path d="M1124 469 c-3 -6 -15 -9 -25 -6 -21 6 -27 -17 -7 -29 7 -4 8 -3 4 4
-4 7 -3 12 2 12 5 0 12 -9 15 -20 3 -11 1 -20 -5 -20 -5 0 -6 -4 -3 -10 9 -15
25 -12 25 6 0 9 5 12 13 8 8 -5 8 -2 -2 9 -7 9 -10 17 -5 17 5 0 2 4 -6 10
-13 8 -13 9 0 14 42 13 44 14 23 15 -12 1 -25 -4 -29 -10z"/>
<path d="M514 422 c-6 -4 -10 -17 -9 -29 2 -22 -30 -61 -44 -55 -11 5 -13 -49
-1 -63 12 -15 40 -10 40 8 0 6 -3 7 -7 4 -3 -4 -12 5 -20 20 -7 14 -11 28 -8
31 3 3 5 0 5 -7 0 -7 5 -9 12 -5 7 5 8 3 3 -6 -6 -9 -4 -11 4 -6 7 5 10 15 7
23 -3 8 -2 12 3 9 15 -10 45 20 35 35 -5 8 -7 22 -6 32 4 19 2 20 -14 9z"/>
<path d="M1550 422 c0 -7 -6 -12 -14 -12 -7 0 -16 -10 -19 -22 -9 -32 -3 -32
22 3 13 17 20 33 17 36 -3 4 -6 1 -6 -5z"/>
<path d="M1277 348 c7 -8 10 -17 8 -20 -3 -3 -1 -17 4 -30 7 -18 6 -29 -2 -37
-9 -9 -8 -11 5 -6 17 7 35 -26 23 -44 -3 -6 3 -14 12 -20 10 -5 17 -13 16 -18
-5 -20 10 -54 23 -49 17 7 28 -10 13 -20 -8 -5 -9 -3 -4 6 6 9 4 11 -4 6 -9
-6 -8 -13 6 -26 10 -9 23 -15 28 -13 6 2 2 -2 -8 -10 -16 -13 -16 -15 -2 -21
9 -3 13 -2 10 4 -3 6 3 10 15 10 12 0 19 -4 16 -9 -3 -5 1 -11 9 -15 8 -3 15
-3 15 1 0 6 -70 95 -82 103 -14 10 -90 182 -83 188 3 4 10 0 15 -8 6 -8 10
-10 10 -4 0 7 -12 20 -27 30 -20 13 -25 13 -16 2z"/>
<path d="M524 334 c-10 -8 -13 -13 -6 -9 6 3 12 1 12 -4 0 -6 -5 -11 -10 -11
-7 0 -7 -6 -1 -19 8 -14 7 -22 -3 -30 -7 -6 -16 -9 -20 -6 -3 3 -2 0 4 -7 6
-8 4 -16 -8 -26 -13 -11 -11 -10 8 1 14 9 24 21 22 29 -2 7 0 9 4 5 11 -11 14
-37 3 -37 -4 0 -6 -7 -3 -15 4 -8 1 -15 -5 -15 -6 0 -11 -4 -11 -10 0 -5 6 -7
14 -4 16 6 32 74 19 83 -9 7 -13 51 -3 51 3 0 6 9 7 20 2 24 2 24 -23 4z"/>
<path d="M283 324 c4 -4 42 -8 84 -9 47 -2 70 1 58 6 -24 9 -151 12 -142 3z"/>
<path d="M1397 323 c-4 -3 -7 -21 -7 -40 0 -18 -5 -33 -11 -33 -5 0 -7 -4 -4
-10 13 -21 25 -8 25 28 0 21 5 43 12 50 7 7 8 12 2 12 -6 0 -14 -3 -17 -7z"/>
<path d="M1644 295 c-4 -8 -4 -22 0 -30 3 -8 2 -15 -2 -15 -9 0 -37 -65 -47
-109 -9 -43 5 -158 15 -121 4 14 3 30 -2 37 -6 7 -4 14 3 19 8 5 10 3 4 -7 -5
-8 -4 -11 0 -6 5 4 14 23 21 43 10 31 10 35 -3 30 -8 -3 -16 -6 -19 -6 -2 0
-1 -6 2 -14 3 -8 1 -17 -4 -20 -6 -4 -9 3 -7 16 2 13 5 32 7 43 2 11 5 22 8
25 12 11 33 67 37 98 5 33 -3 43 -13 17z"/>
<path d="M757 246 c-70 -39 -137 -61 -175 -59 -7 1 -11 -1 -8 -5 3 -3 -2 -11
-12 -18 -15 -11 -14 -12 10 -11 14 1 24 5 22 8 -4 7 35 24 76 33 33 7 199 95
180 95 -8 0 -50 -20 -93 -43z"/>
<path d="M1436 123 c14 -25 21 -30 31 -21 7 6 13 9 14 7 0 -2 3 -15 5 -28 7
-36 16 -41 10 -6 -2 17 -5 32 -6 35 -1 3 -2 9 -1 14 1 5 -5 4 -13 -3 -13 -11
-19 -10 -37 10 l-20 24 17 -32z"/>
</g>
</svg>
